<svg xmlns="http://www.w3.org/2000/svg" width="1200" height="760" viewBox="0 0 1200 760" fill="none">
  <defs>
    <linearGradient id="bg" x1="74" y1="42" x2="1128" y2="718" gradientUnits="userSpaceOnUse">
      <stop stop-color="#140B12"/>
      <stop offset="0.48" stop-color="#2A0F1C"/>
      <stop offset="1" stop-color="#451A03"/>
    </linearGradient>
    <linearGradient id="stroke" x1="0" y1="0" x2="1" y2="1">
      <stop stop-color="#FB7185"/>
      <stop offset="1" stop-color="#F59E0B"/>
    </linearGradient>
    <linearGradient id="danger" x1="0" y1="0" x2="1" y2="0">
      <stop stop-color="#FB7185"/>
      <stop offset="1" stop-color="#EF4444"/>
    </linearGradient>
    <linearGradient id="warn" x1="0" y1="0" x2="1" y2="0">
      <stop stop-color="#F59E0B"/>
      <stop offset="1" stop-color="#F97316"/>
    </linearGradient>
  </defs>
  <rect width="1200" height="760" rx="34" fill="#120A10"/>
  <rect x="36" y="36" width="1128" height="688" rx="28" fill="url(#bg)" stroke="url(#stroke)" stroke-opacity="0.55"/>
  <circle cx="1018" cy="124" r="150" fill="#EF4444" fill-opacity="0.18"/>
  <circle cx="194" cy="648" r="176" fill="#F59E0B" fill-opacity="0.14"/>

  <text x="78" y="104" fill="#FBCFE8" font-family="Arial, sans-serif" font-size="22" font-weight="700">Fraud Monitoring Production System</text>
  <text x="78" y="152" fill="#FFF7ED" font-family="Arial, sans-serif" font-size="48" font-weight="700">Live alerts, anomaly signals, and loss monitoring</text>
  <text x="78" y="190" fill="#FDBA74" font-family="Arial, sans-serif" font-size="22">Risk-focused concept preview with alert-driven monitoring visuals</text>

  <rect x="78" y="236" width="332" height="176" rx="22" fill="#160C12" fill-opacity="0.56" stroke="#7F1D1D"/>
  <text x="104" y="276" fill="#FFE4E6" font-family="Arial, sans-serif" font-size="22" font-weight="700">Fraud alert queue</text>
  <rect x="104" y="306" width="280" height="26" rx="13" fill="#3F0D16"/>
  <rect x="104" y="306" width="228" height="26" rx="13" fill="url(#danger)"/>
  <rect x="104" y="346" width="280" height="26" rx="13" fill="#3F0D16"/>
  <rect x="104" y="346" width="188" height="26" rx="13" fill="url(#warn)"/>
  <text x="104" y="396" fill="#FFE4E6" font-family="Arial, sans-serif" font-size="38" font-weight="700">27 active</text>
  <text x="104" y="424" fill="#FDBA74" font-family="Arial, sans-serif" font-size="18">high-risk cases in current monitoring window</text>

  <rect x="438" y="236" width="314" height="176" rx="22" fill="#160C12" fill-opacity="0.56" stroke="#7C2D12"/>
  <text x="464" y="276" fill="#FFF7ED" font-family="Arial, sans-serif" font-size="22" font-weight="700">Financial impact</text>
  <text x="464" y="334" fill="#FB7185" font-family="Arial, sans-serif" font-size="50" font-weight="700">$84.2K</text>
  <text x="464" y="364" fill="#FDBA74" font-family="Arial, sans-serif" font-size="18">expected loss exposure</text>
  <text x="464" y="404" fill="#FFF7ED" font-family="Arial, sans-serif" font-size="28" font-weight="700">0.91 avg score</text>
  <text x="464" y="432" fill="#FDBA74" font-family="Arial, sans-serif" font-size="18">for flagged transactions</text>

  <rect x="780" y="236" width="310" height="176" rx="22" fill="#160C12" fill-opacity="0.56" stroke="#9A3412"/>
  <text x="806" y="276" fill="#FFF7ED" font-family="Arial, sans-serif" font-size="22" font-weight="700">Monitoring stack</text>
  <text x="806" y="322" fill="#FFE4E6" font-family="Arial, sans-serif" font-size="20">FastAPI scoring service</text>
  <text x="806" y="356" fill="#FFE4E6" font-family="Arial, sans-serif" font-size="20">Drift checks and alert logic</text>
  <text x="806" y="390" fill="#FFE4E6" font-family="Arial, sans-serif" font-size="20">Executive dashboard reporting</text>

  <rect x="78" y="446" width="1012" height="214" rx="24" fill="#160C12" fill-opacity="0.48" stroke="#7C2D12"/>
  <text x="104" y="486" fill="#FFF7ED" font-family="Arial, sans-serif" font-size="22" font-weight="700">Alert intensity over time</text>
  <polyline points="116,612 206,578 296,590 386,540 476,496 566,528 656,482 746,442 836,470 926,404 1018,358" stroke="#FB7185" stroke-width="8" fill="none" stroke-linecap="round" stroke-linejoin="round"/>
  <polyline points="116,628 206,620 296,604 386,596 476,560 566,552 656,528 746,520 836,488 926,474 1018,438" stroke="#F59E0B" stroke-width="8" fill="none" stroke-linecap="round" stroke-linejoin="round"/>
  <text x="108" y="640" fill="#FDBA74" font-family="Arial, sans-serif" font-size="18">Fraud alert score trend</text>
  <text x="356" y="640" fill="#FDBA74" font-family="Arial, sans-serif" font-size="18">Expected loss trend</text>
</svg>
