<svg xmlns="http://www.w3.org/2000/svg" width="1200" height="760" viewBox="0 0 1200 760" fill="none">
  <defs>
    <linearGradient id="pageBg" x1="60" y1="40" x2="1130" y2="730" gradientUnits="userSpaceOnUse">
      <stop stop-color="#fff7f5"/>
      <stop offset="0.52" stop-color="#ffe8e1"/>
      <stop offset="1" stop-color="#ffe7cc"/>
    </linearGradient>
    <linearGradient id="heroGlow" x1="0" y1="0" x2="1" y2="1">
      <stop stop-color="#f97316" stop-opacity="0.18"/>
      <stop offset="1" stop-color="#ec4899" stop-opacity="0.12"/>
    </linearGradient>
    <linearGradient id="alertFill" x1="0" y1="0" x2="1" y2="0">
      <stop stop-color="#fb7185"/>
      <stop offset="1" stop-color="#ef4444"/>
    </linearGradient>
    <linearGradient id="lossFill" x1="0" y1="0" x2="1" y2="0">
      <stop stop-color="#f59e0b"/>
      <stop offset="1" stop-color="#f97316"/>
    </linearGradient>
    <linearGradient id="scoreFill" x1="0" y1="0" x2="1" y2="0">
      <stop stop-color="#14b8a6"/>
      <stop offset="1" stop-color="#0f766e"/>
    </linearGradient>
  </defs>

  <rect width="1200" height="760" rx="34" fill="#fff8f6"/>
  <rect x="34" y="34" width="1132" height="692" rx="28" fill="url(#pageBg)" stroke="#f2c6bb" stroke-width="2"/>
  <circle cx="1010" cy="120" r="168" fill="url(#heroGlow)"/>
  <circle cx="170" cy="650" r="150" fill="#fdba74" fill-opacity="0.16"/>

  <text x="76" y="92" fill="#be185d" font-family="Arial, sans-serif" font-size="20" font-weight="700">Fraud Monitoring Production System</text>
  <text x="76" y="146" fill="#111827" font-family="Arial, sans-serif" font-size="44" font-weight="700">Fraud alerts, scoring, and loss monitoring</text>
  <text x="76" y="184" fill="#7c2d12" font-family="Arial, sans-serif" font-size="20">A cleaner monitoring-style preview with separated cards, score visuals, and operational alert context.</text>

  <rect x="76" y="226" width="240" height="128" rx="22" fill="#fffdfd" stroke="#f2c6bb" stroke-width="2"/>
  <text x="102" y="260" fill="#9f1239" font-family="Arial, sans-serif" font-size="15" font-weight="700">HIGH-RISK ALERTS</text>
  <text x="102" y="314" fill="#111827" font-family="Arial, sans-serif" font-size="48" font-weight="700">27</text>
  <text x="102" y="340" fill="#6b7280" font-family="Arial, sans-serif" font-size="18">active fraud alerts now</text>
  <rect x="244" y="274" width="44" height="44" rx="14" fill="#fff1f2"/>
  <path d="M266 284 L278 310 H254 Z" fill="#e11d48"/>

  <rect x="334" y="226" width="240" height="128" rx="22" fill="#fffdfd" stroke="#f2c6bb" stroke-width="2"/>
  <text x="360" y="260" fill="#9a3412" font-family="Arial, sans-serif" font-size="15" font-weight="700">EXPECTED LOSS</text>
  <text x="360" y="314" fill="#111827" font-family="Arial, sans-serif" font-size="48" font-weight="700">$84.2K</text>
  <text x="360" y="340" fill="#6b7280" font-family="Arial, sans-serif" font-size="18">projected flagged exposure</text>
  <rect x="516" y="275" width="16" height="38" rx="8" fill="#fed7aa"/>
  <rect x="538" y="260" width="16" height="54" rx="8" fill="#fb923c"/>

  <rect x="592" y="226" width="240" height="128" rx="22" fill="#fffdfd" stroke="#f2c6bb" stroke-width="2"/>
  <text x="618" y="260" fill="#115e59" font-family="Arial, sans-serif" font-size="15" font-weight="700">AVG FRAUD SCORE</text>
  <text x="618" y="314" fill="#111827" font-family="Arial, sans-serif" font-size="48" font-weight="700">0.91</text>
  <text x="618" y="340" fill="#6b7280" font-family="Arial, sans-serif" font-size="18">average score for flagged cases</text>
  <circle cx="782" cy="290" r="23" fill="#ccfbf1"/>
  <circle cx="782" cy="290" r="13" fill="#14b8a6"/>

  <rect x="850" y="226" width="276" height="128" rx="22" fill="#fffdfd" stroke="#f2c6bb" stroke-width="2"/>
  <text x="876" y="260" fill="#7c2d12" font-family="Arial, sans-serif" font-size="15" font-weight="700">PRODUCTION STACK</text>
  <text x="876" y="294" fill="#1f2937" font-family="Arial, sans-serif" font-size="18">FastAPI scoring API</text>
  <text x="876" y="322" fill="#1f2937" font-family="Arial, sans-serif" font-size="18">alert checks and drift review</text>
  <text x="876" y="350" fill="#1f2937" font-family="Arial, sans-serif" font-size="18">business-facing dashboard output</text>

  <rect x="76" y="390" width="488" height="286" rx="24" fill="#fffdfd" stroke="#f2c6bb" stroke-width="2"/>
  <text x="102" y="430" fill="#111827" font-family="Arial, sans-serif" font-size="22" font-weight="700">Alert intensity timeline</text>
  <text x="102" y="456" fill="#6b7280" font-family="Arial, sans-serif" font-size="16">Fraud pressure and loss exposure tracked over time.</text>
  <line x1="112" y1="620" x2="532" y2="620" stroke="#e5d0c9" stroke-width="2"/>
  <line x1="112" y1="528" x2="532" y2="528" stroke="#f4dfd9" stroke-width="2" stroke-dasharray="6 6"/>
  <line x1="112" y1="470" x2="532" y2="470" stroke="#f4dfd9" stroke-width="2" stroke-dasharray="6 6"/>
  <polyline points="122,598 172,570 222,580 272,522 322,530 372,486 422,500 472,450 522,418" stroke="url(#alertFill)" stroke-width="8" fill="none" stroke-linecap="round" stroke-linejoin="round"/>
  <polyline points="122,608 172,600 222,586 272,572 322,550 372,536 422,520 472,502 522,476" stroke="url(#lossFill)" stroke-width="8" fill="none" stroke-linecap="round" stroke-linejoin="round"/>
  <text x="118" y="650" fill="#be123c" font-family="Arial, sans-serif" font-size="16">Fraud alert trend</text>
  <text x="258" y="650" fill="#c2410c" font-family="Arial, sans-serif" font-size="16">Expected loss trend</text>

  <rect x="588" y="390" width="252" height="286" rx="24" fill="#fffdfd" stroke="#f2c6bb" stroke-width="2"/>
  <text x="614" y="430" fill="#111827" font-family="Arial, sans-serif" font-size="22" font-weight="700">Score distribution</text>
  <text x="614" y="456" fill="#6b7280" font-family="Arial, sans-serif" font-size="16">Share of traffic across risk-score buckets.</text>
  <rect x="632" y="594" width="36" height="36" rx="10" fill="#bae6fd"/>
  <rect x="688" y="552" width="36" height="78" rx="10" fill="#86efac"/>
  <rect x="744" y="500" width="36" height="130" rx="10" fill="#fdba74"/>
  <rect x="800" y="440" width="36" height="190" rx="10" fill="#fda4af"/>
  <text x="630" y="658" fill="#6b7280" font-family="Arial, sans-serif" font-size="13">0.0-0.2</text>
  <text x="686" y="658" fill="#6b7280" font-family="Arial, sans-serif" font-size="13">0.2-0.5</text>
  <text x="742" y="658" fill="#6b7280" font-family="Arial, sans-serif" font-size="13">0.5-0.8</text>
  <text x="798" y="658" fill="#6b7280" font-family="Arial, sans-serif" font-size="13">0.8+</text>

  <rect x="860" y="390" width="266" height="286" rx="24" fill="#fffdfd" stroke="#f2c6bb" stroke-width="2"/>
  <text x="886" y="430" fill="#111827" font-family="Arial, sans-serif" font-size="22" font-weight="700">Monitoring workflow</text>
  <text x="886" y="456" fill="#6b7280" font-family="Arial, sans-serif" font-size="16">Production-style fraud monitoring loop.</text>

  <rect x="886" y="492" width="214" height="38" rx="19" fill="#fff1f2" stroke="#fecdd3"/>
  <text x="904" y="516" fill="#9f1239" font-family="Arial, sans-serif" font-size="16" font-weight="700">1. Score live transactions</text>

  <rect x="886" y="542" width="214" height="38" rx="19" fill="#fff7ed" stroke="#fed7aa"/>
  <text x="904" y="566" fill="#9a3412" font-family="Arial, sans-serif" font-size="16" font-weight="700">2. Trigger high-risk alerts</text>

  <rect x="886" y="592" width="214" height="38" rx="19" fill="#ecfeff" stroke="#99f6e4"/>
  <text x="904" y="616" fill="#115e59" font-family="Arial, sans-serif" font-size="16" font-weight="700">3. Estimate loss impact</text>

  <rect x="886" y="642" width="214" height="38" rx="19" fill="#fdf4ff" stroke="#f5d0fe"/>
  <text x="904" y="666" fill="#86198f" font-family="Arial, sans-serif" font-size="16" font-weight="700">4. Monitor and report</text>
</svg>
