<svg xmlns="http://www.w3.org/2000/svg" width="1200" height="760" viewBox="0 0 1200 760" fill="none">
  <defs>
    <linearGradient id="bg" x1="88" y1="56" x2="1116" y2="710" gradientUnits="userSpaceOnUse">
      <stop stop-color="#0F172A"/>
      <stop offset="0.55" stop-color="#111827"/>
      <stop offset="1" stop-color="#0C4A6E"/>
    </linearGradient>
    <linearGradient id="stroke" x1="0" y1="0" x2="1" y2="1">
      <stop stop-color="#67E8F9"/>
      <stop offset="1" stop-color="#A78BFA"/>
    </linearGradient>
    <linearGradient id="barA" x1="0" y1="0" x2="1" y2="0">
      <stop stop-color="#22D3EE"/>
      <stop offset="1" stop-color="#34D399"/>
    </linearGradient>
    <linearGradient id="barB" x1="0" y1="0" x2="1" y2="0">
      <stop stop-color="#F59E0B"/>
      <stop offset="1" stop-color="#FB7185"/>
    </linearGradient>
  </defs>
  <rect width="1200" height="760" rx="34" fill="#08111F"/>
  <rect x="36" y="36" width="1128" height="688" rx="28" fill="url(#bg)" stroke="url(#stroke)" stroke-opacity="0.5"/>
  <circle cx="1012" cy="126" r="150" fill="#A78BFA" fill-opacity="0.16"/>
  <circle cx="196" cy="650" r="170" fill="#22D3EE" fill-opacity="0.14"/>

  <text x="78" y="104" fill="#C7D2FE" font-family="Arial, sans-serif" font-size="22" font-weight="700">Fraud Monitoring Production System</text>
  <text x="78" y="152" fill="#F8FAFC" font-family="Arial, sans-serif" font-size="48" font-weight="700">Risk scoring, drift checks, and executive reporting</text>
  <text x="78" y="190" fill="#94A3B8" font-family="Arial, sans-serif" font-size="22">Concept preview for a production-style ML fraud monitoring stack</text>

  <rect x="78" y="236" width="320" height="170" rx="22" fill="#0B1220" fill-opacity="0.48" stroke="#334155"/>
  <text x="104" y="276" fill="#E2E8F0" font-family="Arial, sans-serif" font-size="22" font-weight="700">Live scoring API</text>
  <text x="104" y="324" fill="#22D3EE" font-family="Arial, sans-serif" font-size="44" font-weight="700">0.87</text>
  <text x="104" y="352" fill="#94A3B8" font-family="Arial, sans-serif" font-size="18">fraud probability</text>
  <text x="104" y="388" fill="#F8FAFC" font-family="Arial, sans-serif" font-size="28" font-weight="700">$4,250</text>
  <text x="104" y="414" fill="#94A3B8" font-family="Arial, sans-serif" font-size="18">expected financial loss</text>

  <rect x="426" y="236" width="320" height="170" rx="22" fill="#0B1220" fill-opacity="0.48" stroke="#334155"/>
  <text x="452" y="276" fill="#E2E8F0" font-family="Arial, sans-serif" font-size="22" font-weight="700">Monitoring status</text>
  <rect x="452" y="308" width="242" height="16" rx="8" fill="#1E293B"/>
  <rect x="452" y="308" width="206" height="16" rx="8" fill="url(#barA)"/>
  <rect x="452" y="342" width="242" height="16" rx="8" fill="#1E293B"/>
  <rect x="452" y="342" width="182" height="16" rx="8" fill="url(#barB)"/>
  <rect x="452" y="376" width="242" height="16" rx="8" fill="#1E293B"/>
  <rect x="452" y="376" width="154" height="16" rx="8" fill="#60A5FA"/>
  <text x="704" y="321" fill="#CBD5E1" font-family="Arial, sans-serif" font-size="16">API health</text>
  <text x="704" y="355" fill="#CBD5E1" font-family="Arial, sans-serif" font-size="16">Drift watch</text>
  <text x="704" y="389" fill="#CBD5E1" font-family="Arial, sans-serif" font-size="16">Alert coverage</text>

  <rect x="774" y="236" width="316" height="170" rx="22" fill="#0B1220" fill-opacity="0.48" stroke="#334155"/>
  <text x="800" y="276" fill="#E2E8F0" font-family="Arial, sans-serif" font-size="22" font-weight="700">System stack</text>
  <text x="800" y="320" fill="#F8FAFC" font-family="Arial, sans-serif" font-size="20">Python + Scikit-learn</text>
  <text x="800" y="354" fill="#F8FAFC" font-family="Arial, sans-serif" font-size="20">FastAPI scoring service</text>
  <text x="800" y="388" fill="#F8FAFC" font-family="Arial, sans-serif" font-size="20">PostgreSQL + Power BI</text>

  <rect x="78" y="446" width="1012" height="214" rx="24" fill="#0B1220" fill-opacity="0.42" stroke="#334155"/>
  <text x="104" y="486" fill="#E2E8F0" font-family="Arial, sans-serif" font-size="22" font-weight="700">Risk trend view</text>
  <polyline points="116,612 220,580 324,588 428,526 532,506 636,520 740,470 844,440 948,394 1034,370" stroke="#22D3EE" stroke-width="8" fill="none" stroke-linecap="round" stroke-linejoin="round"/>
  <polyline points="116,628 220,620 324,604 428,592 532,564 636,556 740,530 844,516 948,492 1034,474" stroke="#FB7185" stroke-width="8" fill="none" stroke-linecap="round" stroke-linejoin="round"/>
  <text x="108" y="640" fill="#94A3B8" font-family="Arial, sans-serif" font-size="18">Fraud probability trend</text>
  <text x="372" y="640" fill="#94A3B8" font-family="Arial, sans-serif" font-size="18">Expected loss trend</text>
</svg>
