<svg xmlns="http://www.w3.org/2000/svg" width="1200" height="760" viewBox="0 0 1200 760" fill="none">
  <defs>
    <linearGradient id="bg" x1="76" y1="40" x2="1124" y2="720" gradientUnits="userSpaceOnUse">
      <stop stop-color="#0f1b2d"/>
      <stop offset="1" stop-color="#12344a"/>
    </linearGradient>
    <linearGradient id="accentRed" x1="0" y1="0" x2="1" y2="1">
      <stop stop-color="#fb7185"/>
      <stop offset="1" stop-color="#ef4444"/>
    </linearGradient>
    <linearGradient id="accentAmber" x1="0" y1="0" x2="1" y2="1">
      <stop stop-color="#fbbf24"/>
      <stop offset="1" stop-color="#f97316"/>
    </linearGradient>
    <linearGradient id="accentTeal" x1="0" y1="0" x2="1" y2="1">
      <stop stop-color="#34d399"/>
      <stop offset="1" stop-color="#14b8a6"/>
    </linearGradient>
  </defs>

  <rect width="1200" height="760" rx="34" fill="#0b1423"/>
  <rect x="34" y="34" width="1132" height="692" rx="28" fill="url(#bg)" stroke="#31556f" stroke-width="2"/>

  <text x="76" y="94" fill="#d1fae5" font-family="Arial, sans-serif" font-size="20" font-weight="700">Fraud Monitoring Production System</text>
  <text x="76" y="146" fill="#f8fafc" font-family="Arial, sans-serif" font-size="44" font-weight="700">Fraud scoring, alert queues, and loss monitoring</text>
  <text x="76" y="184" fill="#93c5fd" font-family="Arial, sans-serif" font-size="20">Clear monitoring-style preview with operational signals, alert trends, and financial exposure.</text>

  <rect x="76" y="226" width="238" height="132" rx="20" fill="#102336" stroke="#29465f"/>
  <text x="100" y="262" fill="#a7f3d0" font-family="Arial, sans-serif" font-size="16" font-weight="700">HIGH-RISK ALERTS</text>
  <text x="100" y="316" fill="#f8fafc" font-family="Arial, sans-serif" font-size="48" font-weight="700">27</text>
  <text x="100" y="344" fill="#94a3b8" font-family="Arial, sans-serif" font-size="18">active in the current window</text>
  <circle cx="268" cy="294" r="26" fill="url(#accentRed)" fill-opacity="0.22"/>
  <path d="M268 278 L281 305 H255 Z" fill="#fb7185"/>

  <rect x="334" y="226" width="238" height="132" rx="20" fill="#102336" stroke="#29465f"/>
  <text x="358" y="262" fill="#fde68a" font-family="Arial, sans-serif" font-size="16" font-weight="700">EXPECTED LOSS</text>
  <text x="358" y="316" fill="#f8fafc" font-family="Arial, sans-serif" font-size="48" font-weight="700">$84.2K</text>
  <text x="358" y="344" fill="#94a3b8" font-family="Arial, sans-serif" font-size="18">projected exposure on flagged flow</text>
  <rect x="512" y="278" width="24" height="46" rx="8" fill="url(#accentAmber)"/>
  <rect x="540" y="260" width="24" height="64" rx="8" fill="#fbbf24" fill-opacity="0.8"/>

  <rect x="592" y="226" width="238" height="132" rx="20" fill="#102336" stroke="#29465f"/>
  <text x="616" y="262" fill="#67e8f9" font-family="Arial, sans-serif" font-size="16" font-weight="700">AVG FRAUD SCORE</text>
  <text x="616" y="316" fill="#f8fafc" font-family="Arial, sans-serif" font-size="48" font-weight="700">0.91</text>
  <text x="616" y="344" fill="#94a3b8" font-family="Arial, sans-serif" font-size="18">for cases currently escalated</text>
  <circle cx="772" cy="294" r="28" fill="#0f766e" fill-opacity="0.32"/>
  <circle cx="772" cy="294" r="18" fill="url(#accentTeal)"/>

  <rect x="850" y="226" width="276" height="132" rx="20" fill="#102336" stroke="#29465f"/>
  <text x="874" y="262" fill="#c4b5fd" font-family="Arial, sans-serif" font-size="16" font-weight="700">PRODUCTION STACK</text>
  <text x="874" y="300" fill="#f8fafc" font-family="Arial, sans-serif" font-size="18">FastAPI scoring API</text>
  <text x="874" y="328" fill="#f8fafc" font-family="Arial, sans-serif" font-size="18">Drift and alert checks</text>
  <text x="874" y="356" fill="#f8fafc" font-family="Arial, sans-serif" font-size="18">Executive dashboard reporting</text>

  <rect x="76" y="390" width="488" height="286" rx="24" fill="#102336" stroke="#29465f"/>
  <text x="102" y="430" fill="#f8fafc" font-family="Arial, sans-serif" font-size="22" font-weight="700">Alert intensity timeline</text>
  <text x="102" y="456" fill="#94a3b8" font-family="Arial, sans-serif" font-size="16">Monitor how flagged transaction pressure changes across the day.</text>
  <line x1="108" y1="626" x2="532" y2="626" stroke="#365873" stroke-width="2"/>
  <line x1="108" y1="518" x2="532" y2="518" stroke="#20384f" stroke-width="2" stroke-dasharray="6 6"/>
  <line x1="108" y1="464" x2="532" y2="464" stroke="#20384f" stroke-width="2" stroke-dasharray="6 6"/>
  <polyline points="118,598 168,566 218,574 268,520 318,530 368,478 418,492 468,446 518,420" stroke="#fb7185" stroke-width="8" fill="none" stroke-linecap="round" stroke-linejoin="round"/>
  <polyline points="118,612 168,604 218,586 268,576 318,548 368,536 418,514 468,506 518,474" stroke="#fbbf24" stroke-width="8" fill="none" stroke-linecap="round" stroke-linejoin="round"/>
  <text x="110" y="654" fill="#fca5a5" font-family="Arial, sans-serif" font-size="16">Fraud alert score trend</text>
  <text x="300" y="654" fill="#fde68a" font-family="Arial, sans-serif" font-size="16">Expected loss trend</text>

  <rect x="588" y="390" width="276" height="286" rx="24" fill="#102336" stroke="#29465f"/>
  <text x="614" y="430" fill="#f8fafc" font-family="Arial, sans-serif" font-size="22" font-weight="700">Score distribution</text>
  <text x="614" y="456" fill="#94a3b8" font-family="Arial, sans-serif" font-size="16">Share of transactions by risk-score bucket.</text>
  <rect x="632" y="592" width="34" height="42" rx="10" fill="#38bdf8"/>
  <rect x="684" y="552" width="34" height="82" rx="10" fill="#22c55e"/>
  <rect x="736" y="500" width="34" height="134" rx="10" fill="#fbbf24"/>
  <rect x="788" y="438" width="34" height="196" rx="10" fill="#fb7185"/>
  <text x="630" y="662" fill="#cbd5e1" font-family="Arial, sans-serif" font-size="14">0.0-0.2</text>
  <text x="682" y="662" fill="#cbd5e1" font-family="Arial, sans-serif" font-size="14">0.2-0.5</text>
  <text x="734" y="662" fill="#cbd5e1" font-family="Arial, sans-serif" font-size="14">0.5-0.8</text>
  <text x="786" y="662" fill="#cbd5e1" font-family="Arial, sans-serif" font-size="14">0.8+</text>

  <rect x="884" y="390" width="242" height="286" rx="24" fill="#102336" stroke="#29465f"/>
  <text x="910" y="430" fill="#f8fafc" font-family="Arial, sans-serif" font-size="22" font-weight="700">Monitoring workflow</text>
  <text x="910" y="458" fill="#94a3b8" font-family="Arial, sans-serif" font-size="16">The system follows a production-style fraud loop.</text>

  <rect x="910" y="492" width="190" height="34" rx="17" fill="#16324a"/>
  <text x="926" y="514" fill="#dbeafe" font-family="Arial, sans-serif" font-size="16" font-weight="700">1. Score live transactions</text>

  <rect x="910" y="540" width="190" height="34" rx="17" fill="#16324a"/>
  <text x="926" y="562" fill="#dbeafe" font-family="Arial, sans-serif" font-size="16" font-weight="700">2. Flag risky events</text>

  <rect x="910" y="588" width="190" height="34" rx="17" fill="#16324a"/>
  <text x="926" y="610" fill="#dbeafe" font-family="Arial, sans-serif" font-size="16" font-weight="700">3. Estimate loss impact</text>

  <rect x="910" y="636" width="190" height="34" rx="17" fill="#16324a"/>
  <text x="926" y="658" fill="#dbeafe" font-family="Arial, sans-serif" font-size="16" font-weight="700">4. Report and monitor drift</text>
</svg>
